<svg xmlns="http://www.w3.org/2000/svg" viewBox="0 0 1366 768"><defs><style>.cls-1{fill:none;stroke:#000;stroke-miterlimit:10;stroke-width:5px;}.cls-2{font-size:226.67px;}.cls-2,.cls-3{font-family:ProcionoTT, Prociono TT;}.cls-3{font-size:181.89px;}</style></defs><g id="Layer_1" data-name="Layer 1"><path class="cls-1" d="M348.26,214.87c-8,0-48.42-34.75-116.78-2.85,10.25,53.54,14.81,61.52,8,84.31-6.22,20.71-47.27,111,67.79,158.93,13.67,5.7,29.62,20.51,41,20.51"/><path class="cls-1" d="M348.18,214.87c8,0,48.43-34.75,116.78-2.85-10.25,53.54-14.81,61.52-8,84.31,6.21,20.71,47.27,111-67.79,158.93-13.67,5.7-29.62,20.51-41,20.51"/><path class="cls-1" d="M348.27,197.4c-9.12,0-55.34-39.71-133.46-3.26,11.71,61.2,16.92,70.31,9.11,96.35-7.1,23.68-54,126.85,77.47,181.64,15.63,6.51,33.86,23.44,46.88,23.44"/><path class="cls-1" d="M348.18,197.4c9.11,0,55.34-39.71,133.46-3.26-11.72,61.2-16.93,70.31-9.12,96.35,7.11,23.68,54,126.85-77.47,181.64-15.62,6.51-33.85,23.44-46.87,23.44"/><text class="cls-2" transform="translate(276.46 411.39) scale(1.89 1)">I</text><text class="cls-3" transform="translate(522.83 396.72)">edno</text></g></svg>