<?xml version="1.0" encoding="utf-8"?>
<!-- Generator: Adobe Illustrator 24.3.0, SVG Export Plug-In . SVG Version: 6.00 Build 0)  -->
<svg version="1.1" id="Layer_1" xmlns="http://www.w3.org/2000/svg" xmlns:xlink="http://www.w3.org/1999/xlink" x="0px" y="0px"
	 viewBox="0 0 281.4 321.8" style="enable-background:new 0 0 281.4 321.8;" xml:space="preserve">
<style type="text/css">
	.st0{fill:none;stroke:#FDF9E4;stroke-width:5;stroke-miterlimit:10;}
	.st1{fill:#FDF9E4;}
	.st2{font-family:'ProcionoTT';}
	.st3{font-size:226.67px;}
</style>
<g id="Layer_1_1_">
	<path class="st0" d="M140.7,38.6c-8,0-48.4-34.8-116.8-2.9c10.3,53.5,14.8,61.5,8,84.3c-6.2,20.7-47.3,111,67.8,158.9
		c13.7,5.7,29.6,20.5,41,20.5"/>
	<path class="st0" d="M140.7,38.6c8,0,48.4-34.8,116.8-2.9c-10.2,53.5-14.8,61.5-8,84.3c6.2,20.7,47.3,111-67.8,158.9
		c-13.7,5.7-29.6,20.5-41,20.5"/>
	<path class="st0" d="M140.8,21.2c-9.1,0-55.3-39.7-133.5-3.3c11.7,61.2,16.9,70.3,9.1,96.3c-7.1,23.7-54,126.9,77.5,181.6
		c15.6,6.5,33.9,23.4,46.9,23.4"/>
	<path class="st0" d="M140.7,21.2c9.1,0,55.3-39.7,133.5-3.3c-11.7,61.2-16.9,70.3-9.1,96.3c7.1,23.7,54,126.9-77.5,181.6
		c-15.6,6.5-33.9,23.4-46.9,23.4"/>
	<text transform="matrix(1.89 0 0 1 68.9431 235.1361)" class="st1 st2 st3">I</text>
	
		<text transform="matrix(1 0 0 1 315.3034 220.476)" class="st2" style="display:none;enable-background:new    ; font-size:181.89px;">edno</text>
</g>
</svg>
